# xmcd
#
# Track frame offsets: 
#        150
#        12396
#        25846
#        43435
#        62544
#        80509
#        99231
#        121856
#        137549
#        155994
#        179822
#        195032
#        214381
#
# Disc length: 3279 seconds
#
# Revision: 3
# Processed by: cddbd v1.5.2PL0 Copyright (c) Steve Scherf et al.
# Submitted via: ExactAudioCopyFreeDBPlugin 1.0
#
DISCID=b20ccd0d
DTITLE=Stepa - MC
DYEAR=2008
DGENRE=Rap
TTITLE0=MC
TTITLE1=Lissää
TTITLE2=Naiset
TTITLE3=Kesäduuni Räp (Loparit)
TTITLE4=Lapsuusvuosi Boogie - Tykopaatti - Mc Tilanne Skit I
TTITLE5=Pakko Tehä Rahhaa (feat. Säkä)
TTITLE6=Ongelmii (feat. Jodarok) - Välisoitto - Ympäri Kaupunkii
TTITLE7=Vapaapäivä
TTITLE8=Viimeiset Dollarit
TTITLE9=Vinkunat Kunnossa (feat. Hannibal and Soppa) - Tykopaatti - Mc T
TTITLE9=ilanne Skit II
TTITLE10=Sun Äitis
TTITLE11=Kysymyksiä
TTITLE12=Pikkukylä (feat. Säkä)
EXTD=
EXTT0=
EXTT1=
EXTT2=
EXTT3=
EXTT4=
EXTT5=
EXTT6=
EXTT7=
EXTT8=
EXTT9=
EXTT10=
EXTT11=
EXTT12=
PLAYORDER=
